<svg width="484" height="819" viewBox="0 0 484 819" fill="none" xmlns="http://www.w3.org/2000/svg">
<g id="Group 6198">
<path id="Vector" fill-rule="evenodd" clip-rule="evenodd" d="M233.859 0.88211C209.734 4.64587 195.669 21.5261 199.43 42.2019L200.695 49.1526L197.95 51.502C195.333 53.7417 195.23 54.1657 195.76 60.5855C196.065 64.2893 196.813 68.8465 197.423 70.7129C199.001 75.5468 202.793 80.4023 205.245 80.7315C207.187 80.9913 207.387 81.8279 207.947 91.9862C208.28 98.0215 208.178 104.775 207.72 106.995C206.317 113.784 200.791 117.937 185.662 123.572C180.74 125.404 172.512 129.219 167.378 132.048C160.373 135.909 157.065 137.193 154.118 137.193C149.048 137.193 139.342 139.539 133.556 142.163C126.201 145.5 118.256 153.563 113.464 162.554C108.847 171.217 104.066 185.295 104.066 190.229C104.066 192.668 102.846 194.636 98.4665 199.268C91.5965 206.534 86.5585 215.325 79.1656 232.944C72.6784 248.402 71.4852 250.262 61.4539 260.525C47.1676 275.143 42.541 283.116 30.2806 314.241C26.0693 324.933 21.2344 337.057 19.5375 341.184C15.3606 351.336 11.784 360.948 5.75487 378.231C0.887498 392.181 0.66307 393.297 0.194916 405.871C-0.236678 417.477 -0.0538899 419.566 1.7974 424.16C4.39915 430.615 11.6093 440.477 14.0445 440.91C16.1761 441.289 19.7781 438.577 19.7781 436.593C19.7781 435.838 21.1491 433.779 22.8247 432.016C26.4369 428.217 26.4613 427.941 23.8209 420.853C21.9818 415.916 21.8853 414.575 22.8846 407.811C23.9022 400.922 25.7839 396.989 28.0597 396.989C28.5319 396.989 28.9178 399.554 28.9178 402.688C28.9178 407.767 29.2488 408.694 31.9572 411.195C34.9794 413.986 37.8564 414.212 40.5658 411.871C41.107 411.403 41.5985 406.281 41.6585 400.487C41.7174 394.695 42.1358 386.891 42.5877 383.147C43.1462 378.516 43.001 374.564 42.1327 370.784C40.1078 361.972 41.8829 359.452 64.9727 338.371C75.7067 328.57 86.3768 317.941 88.683 314.753C90.9892 311.565 95.6048 303.387 98.9387 296.581C106.695 280.749 112.245 272.142 118.861 265.684C126.323 258.399 134.282 247.827 139.611 238.119L144.179 229.799L145.478 234.376C147.82 242.63 152.988 254.718 158.642 265.165C166.144 279.025 167.088 282.146 167.738 295.227C168.311 306.753 167.254 315.832 162.988 336.026C161.953 340.926 160.362 349.789 159.453 355.722C156.913 372.304 152.943 391.693 149.754 403.085C141.995 430.817 139.101 451.319 139.101 478.585C139.101 502.18 140.188 511.929 145.318 534.39C148.929 550.192 149.308 554.946 147.755 564.872C147.23 568.225 146.369 575.188 145.842 580.347C145.23 586.342 143.417 594.294 140.818 602.387C138.58 609.351 136.259 617.37 135.658 620.207C135.058 623.044 134.066 627.687 133.457 630.524C131.711 638.642 131.134 656.491 132.334 665.226C132.936 669.611 134.602 681.006 136.037 690.549C142.586 734.113 143.576 746.826 141.21 756.966C140.329 760.74 139.609 765.101 139.609 766.657C139.609 770.551 125.31 785.276 121.528 785.276C118.424 785.276 109.144 793.516 109.144 796.27C109.144 799.281 112.845 802.843 116.491 803.34C125.643 804.588 135.922 807.896 139.391 810.708C145.074 815.317 150.358 817.121 158.243 817.144C166.745 817.169 171.246 815.381 174.374 810.734C176.521 807.546 176.681 806.248 176.747 791.373C176.799 779.58 177.253 774.006 178.489 769.962C179.846 765.523 179.977 763.167 179.189 757.422C178.541 752.705 178.58 747.345 179.305 741.344C180.744 729.422 188.081 703.148 194.317 687.585C202.416 667.376 202.994 661.201 199.433 632.869C198.103 622.287 197.489 612.902 197.786 607.721C198.231 599.986 198.623 598.781 203.89 588.963C211.096 575.531 213.186 569.022 215.761 551.987C219.493 527.295 220.87 521.674 228.534 499.841C236.205 477.991 240.145 462.944 240.145 455.506C240.145 453.24 240.602 451.387 241.161 451.387C241.723 451.387 242.176 453.854 242.176 456.914C242.176 466.53 245.179 478.128 254.828 505.784C260.28 521.411 262.359 529.692 264.479 544.238C268.254 570.129 270.001 576.14 277.687 589.669C280.42 594.479 282.968 600.42 283.386 602.957C284.135 607.498 282.608 628.282 280.685 639.734C279.251 648.268 279.29 664.774 280.76 671.303C281.454 674.386 284.209 682.405 286.881 689.123C295.958 711.93 303.58 744.242 301.989 753.165C300.729 760.234 300.953 766.94 302.646 772.803C304.305 778.55 304.745 789.709 303.595 796.798C302.54 803.3 305.2 810.523 310.182 814.68C315.051 818.742 317.67 819.442 325.54 818.783C332.341 818.213 338.252 815.418 343.673 810.21C346.161 807.82 348.069 806.839 350.274 806.817C351.98 806.8 355.889 805.97 358.961 804.972C362.033 803.974 365.504 803.144 366.674 803.127C369.765 803.082 372.162 800.149 372.162 796.413C372.162 792.272 366.381 786.816 360.469 785.378C357.276 784.6 354.685 782.664 348.536 776.458C341.861 769.722 340.681 768.037 340.681 765.238C340.681 763.427 339.95 759.071 339.058 755.556C337.871 750.886 337.611 747.023 338.091 741.195C338.882 731.604 343.889 694.066 346.723 676.481C350.988 650.015 348.716 628.082 338.661 598.636C336.509 592.332 332.592 564.585 332.569 555.479C332.563 552.634 333.887 544.826 335.511 538.128C345.851 495.505 346.167 461.446 336.616 419.029C334.991 411.808 332.047 398.724 330.074 389.955C328.103 381.185 325.347 366.625 323.95 357.597C322.553 348.57 320.202 334.431 318.725 326.178C315.495 308.13 315.085 290.395 317.671 280.479C318.575 277.01 322 269.202 325.283 263.128C330.927 252.685 335.621 241.107 337.176 233.796C337.56 231.99 338.103 230.155 338.383 229.718C338.664 229.281 340.892 232.377 343.335 236.601C348.942 246.292 357.026 256.902 364.779 264.746C372.769 272.831 377.185 279.392 385.547 295.604C389.379 303.032 394.64 311.895 397.24 315.299C399.839 318.703 410.276 329.085 420.432 338.371C435.414 352.068 439.416 356.281 441.641 360.704C444.362 366.112 444.37 366.189 442.647 370.354C440.744 374.956 440.681 376.86 441.76 397.281C442.444 410.248 442.643 411.263 444.765 412.546C446.391 413.53 447.737 413.675 449.5 413.056C453.435 411.673 454.616 409.603 455.182 403.095C455.474 399.736 455.898 396.989 456.124 396.989C456.35 396.989 457.47 397.794 458.613 398.776C461.977 401.671 462.486 413.877 459.575 421.835C457.074 428.675 457.456 431.378 461.108 432.66C462.609 433.187 463.559 434.272 463.559 435.462C463.559 438.118 468.215 442.32 470.083 441.349C472.601 440.041 478.836 431.829 481.531 426.271C484.003 421.171 484.123 420.166 483.944 406.022L483.756 391.137L478.227 375.083C475.187 366.254 472.699 358.673 472.699 358.238C472.699 357.804 469.753 350.592 466.152 342.213C462.552 333.835 456.68 319.413 453.105 310.165C446.353 292.703 440.178 280.215 435.38 274.326C433.843 272.439 428.761 266.873 424.087 261.959C412.599 249.88 409.426 245.254 405.178 234.384C398.317 216.83 391.55 205.195 383.984 197.944C381.978 196.022 380.145 193.49 379.91 192.316C376.52 175.401 372.657 165.583 365.647 156.064C357.412 144.881 345.946 138.806 330.541 137.46C326.319 137.091 323.191 135.985 317.832 132.964C313.923 130.759 304.783 126.5 297.522 123.498C288.367 119.715 282.92 116.829 279.75 114.083L275.181 110.124L274.856 95.522C274.547 81.705 274.633 80.919 276.455 80.919C283.718 80.919 290.565 57.1425 284.828 51.8444C283.711 50.8127 282.351 49.9686 281.807 49.9686C281.198 49.9686 281.252 48.9754 281.949 47.3894C282.573 45.9704 283.123 40.3786 283.173 34.9623C283.252 26.4462 282.944 24.5161 280.904 20.6913C275.502 10.5659 264.927 3.26717 252.839 1.32011C242.463 -0.351219 241.855 -0.365287 233.859 0.88211ZM229.008 4.51644C216.15 7.84409 205.611 17.5456 203.065 28.3971C201.258 36.0981 203.161 48.4361 209.285 68.7264C210.938 74.2047 218.873 86.0052 221.915 87.5087C223.24 88.1633 225.197 87.7769 229.146 86.0784C236.734 82.8164 245.411 82.8633 253.488 86.2116C259.377 88.652 259.5 88.6632 261.634 86.915C264.501 84.5637 269.849 76.7295 271.92 71.844C275.381 63.6806 279.952 43.0451 280.09 34.9623C280.204 28.1954 279.83 26.2099 277.61 21.8318C274.289 15.2806 268.778 10.3351 260.675 6.63608C255.12 4.10002 253.018 3.68172 244.427 3.40129C237.697 3.18182 232.795 3.53635 229.008 4.51644ZM199.126 54.266C196.747 59.99 202.086 78.1054 206.152 78.1054C208.318 78.1054 208.049 74.6202 204.978 62.9406C202.424 53.225 200.65 50.596 199.126 54.266ZM280.391 53.5223C280.118 53.9293 278.689 58.5756 277.215 63.8485C274.471 73.6626 274.261 77.2097 276.385 77.8559C280.246 79.0292 285.674 60.2301 283.196 54.266C282.535 52.6744 281.196 52.319 280.391 53.5223ZM269.697 80.693C267.901 84.6959 262.631 89.3807 259.213 90.0119L256.123 90.5822L256.689 97.2402C257.749 109.737 262.118 114.855 275.608 119.401C283.745 122.144 287.576 122.621 282.63 120.276C281.326 119.657 278.56 117.652 276.485 115.82C271.102 111.069 270.022 105.843 271.207 90.2802C271.717 83.5817 271.847 78.1026 271.495 78.1035C271.145 78.1044 270.335 79.2693 269.697 80.693ZM211.303 93.5215C211.672 108.11 211.62 108.565 209.122 112.503C207.714 114.721 204.872 117.596 202.808 118.892C198.586 121.541 199.822 121.856 206.784 119.905C220.382 116.094 225.928 109.248 225.928 96.2761C225.928 90.6028 225.805 90.298 223.507 90.298C221.142 90.298 216.314 86.1478 212.587 80.9106C211.018 78.7066 210.946 79.4175 211.303 93.5215ZM233.544 86.7462C228.386 88.4222 227.959 89.1491 227.953 96.2742C227.946 105.229 226.668 108.953 221.881 113.976C217.587 118.482 212.137 120.945 200.746 123.532C193.733 125.125 179.861 130.734 176.977 133.145C173.841 135.765 174.798 137.767 180.642 140.813C183.662 142.387 188.117 145.803 190.543 148.405C192.969 151.007 195.519 153.136 196.209 153.137C196.898 153.137 201.468 151.991 206.364 150.589C215.026 148.112 215.947 148.042 240.653 148.01C265.492 147.979 266.266 148.037 276.461 150.648L286.881 153.317L291.615 148.454C294.219 145.78 298.783 142.322 301.759 140.772C304.735 139.22 307.448 137.535 307.788 137.027C308.705 135.657 303.41 130.962 298.641 128.915C294.24 127.026 287.089 124.711 274.877 121.225C269.43 119.669 266.157 118.021 262.528 115.009C256.505 110.007 254.363 104.856 254.363 95.3776V88.5985L249.612 87.1035C244.252 85.4172 238.06 85.2793 233.544 86.7462ZM169.073 134.533C163.632 137.415 163.561 137.506 166.027 138.434C173.051 141.081 175.1 142.212 178.18 145.147C180.371 147.234 181.569 149.328 181.642 151.193C181.727 153.366 182.144 153.934 183.389 153.57C185.313 153.009 191.387 159.903 196.856 168.856C204.815 181.889 216.423 208.496 221.911 226.292C227.594 244.716 225.684 252.954 207.332 289.211C201.479 300.773 194.794 315.275 192.477 321.436C187.315 335.155 185.233 338.676 180.516 341.662C175.303 344.961 167.318 354.144 164.301 360.311C162.887 363.203 160.911 369.79 159.91 374.948C158.199 383.767 156.673 390.181 150.314 415.278C146.809 429.11 143.916 446.998 142.451 463.892C140.561 485.679 143.071 510.986 149.851 538.487C151.578 545.493 151.914 549.199 151.51 556.776C150.614 573.585 148.589 588.595 146.181 596.287C143.76 604.014 143.61 606.059 145.744 602.233C146.416 601.028 148.038 598.978 149.349 597.677C151.165 595.875 151.706 594.311 151.623 591.112C151.563 588.802 152.894 582.692 154.58 577.533C159.749 561.723 160.998 552.586 162.019 523.135C163.168 489.933 164.935 475.132 169.211 462.87C173.415 450.817 173.455 447.385 169.455 442.008C165.139 436.206 161.628 430.193 159.415 424.817C157.283 419.635 156.844 419.995 154.48 428.877C150.416 444.148 149.287 455.869 149.288 482.806C149.289 505.844 149.577 510.678 151.639 522.197C154.366 537.431 156.609 546.48 158.542 550.046C159.37 551.573 159.528 552.792 158.944 553.125C155.053 555.346 147.634 519.086 146.186 490.778C145.163 470.8 148.108 442.508 152.942 425.867C156.107 414.971 156.974 414.917 162.244 425.281C164.692 430.096 168.637 436.779 171.01 440.132C174.772 445.448 175.265 446.737 174.858 450.199L174.39 454.17L177.34 451.878C181.35 448.761 186.072 448.126 195.841 449.386C207.072 450.835 214.115 450.722 218.524 449.02C221.482 447.879 222.39 447.832 223.046 448.786C223.497 449.442 223.876 450.191 223.887 450.449C223.899 450.707 224.364 453.45 224.921 456.545C226.029 462.704 226.352 484.56 225.471 493.838L224.916 499.688L228.554 489.84C232.988 477.836 236.731 460.693 237.666 448.104L238.363 438.725L234.939 441.632C230.749 445.187 226.843 447.645 225.448 447.605C224.874 447.589 225.319 446.943 226.436 446.169C230.882 443.092 235.569 438.527 238.166 434.746L240.9 430.765L243.721 434.746C245.272 436.935 248.872 440.727 251.721 443.174C254.571 445.621 256.379 447.626 255.742 447.629C255.104 447.632 252.182 445.642 249.249 443.207L243.917 438.779L244.634 449.538C245.518 462.812 249.187 479.887 253.923 492.76C255.894 498.118 257.264 501.236 256.967 499.688C256.671 498.141 256.139 489.911 255.784 481.399C255.156 466.285 256.009 455.66 258.285 450.257L259.354 447.722L264.101 449.215C267.929 450.421 270.739 450.563 278.615 449.954C296.29 448.589 300.547 448.794 304.04 451.18L307.169 453.319V449.749C307.169 447.127 308.427 444.32 311.909 439.17C314.515 435.314 318.406 428.657 320.555 424.375C322.705 420.094 324.878 416.828 325.386 417.118C326.909 417.987 329.326 425.897 331.467 437.026C337.786 469.863 336.671 508.245 328.434 541.474C323.211 562.55 322.352 567.163 326.804 580C328.242 584.145 328.275 584.642 328.445 587.238C328.499 588.056 328.566 589.084 328.695 590.5C328.718 590.603 328.741 590.707 328.763 590.812C329.203 592.839 329.723 595.239 332.717 598.434C334.305 600.128 335.604 601.3 335.604 601.038C335.604 600.775 334.729 597.279 333.658 593.267C330.26 580.535 328.38 551.152 330.519 544.26C332.204 538.836 335.387 523.709 337.036 513.287C341.232 486.772 341.122 465.143 336.65 437.039C334.549 423.833 333.691 419.796 328.437 398.396C326.791 391.69 324.571 381.511 323.504 375.776C320.784 361.158 313.848 349.616 303.69 342.806C296.668 338.097 296.445 337.774 292.822 327.116C288.043 313.05 284.528 305.316 274.71 287.255C269.803 278.228 264.033 266.622 261.889 261.463C258.214 252.63 257.988 251.484 257.992 241.768C257.996 231.89 258.204 230.892 262.884 218.32C271.838 194.265 281.574 174.406 290.589 161.812C295.848 154.464 296.815 153.646 299.807 154.004C300.57 154.096 301.076 153.067 301.076 151.429C301.076 147.324 304.749 143.808 312.499 140.492C320.152 137.218 320.151 137.095 312.402 133.489C307.849 131.369 305.946 131.335 308.668 133.422C311.722 135.763 310.377 137.943 303.255 142.199C299.426 144.486 294.513 148.337 292.338 150.755C288.56 154.956 288.202 155.128 284.353 154.571L280.323 153.987L282.478 156.141L284.634 158.295L279.782 167.674C273.572 179.675 267.083 194.873 260.129 213.704C252.517 234.312 249.522 240.866 246.225 244.125C240.783 249.506 237.02 247.33 230.995 235.322C228.892 231.13 224.795 221.368 221.888 213.631C215.056 195.439 207.713 178.342 202.023 167.381C198.411 160.423 197.703 158.28 198.538 156.839C199.455 155.256 199.262 155.054 197.005 155.226C195.024 155.377 193.329 154.269 189.725 150.464C187.14 147.735 182.574 144.225 179.576 142.662C172.859 139.161 171.808 137.632 173.744 134.174C174.547 132.739 175.078 131.569 174.925 131.574C174.77 131.579 172.137 132.91 169.073 134.533ZM144.942 141.455C142.01 142.185 137.686 143.688 135.333 144.797C122.656 150.77 111.297 168.873 107.692 188.845L107.088 192.197L113.955 189.055C118.842 186.819 123.083 185.681 128.663 185.107C134.569 184.499 137.62 183.638 141.029 181.615C143.518 180.138 149.773 176.427 154.931 173.371C160.089 170.314 167.662 164.825 171.761 161.172C180.648 153.251 181.259 150.918 175.706 146.081C169.106 140.333 156.86 138.492 144.942 141.455ZM315.479 141.79C308.989 143.86 303.107 148.768 303.107 152.114C303.107 156.334 318.989 168.73 337.536 178.986C346.091 183.717 348.111 184.432 354.867 185.127C360.235 185.679 364.553 186.846 369.351 189.041L376.186 192.168L375.594 188.362C373.608 175.596 365.656 159.231 358.006 152.166C346.893 141.903 328.894 137.511 315.479 141.79ZM179.159 159.321C175.132 163.2 159.073 174.369 149.616 179.867L143.163 183.618L142.859 189.568C142.359 199.322 145.578 206.684 153.483 213.865C160.468 220.21 160.661 221.379 153.988 216.913C151.674 215.366 149.549 214.1 149.266 214.1C148.353 214.1 148.714 224.829 149.819 230.575C151.719 240.447 157.102 254.552 163.025 265.172C172.752 282.613 179.116 297.984 185.855 320.316C186.75 323.283 187.642 325.709 187.837 325.709C188.031 325.709 188.965 323.493 189.912 320.785C192.22 314.18 198.879 299.984 207.646 282.975C211.615 275.274 216.494 264.563 218.488 259.173C221.939 249.847 222.089 248.916 221.603 239.942C221.076 230.235 218.089 220.691 208.673 198.625C200.892 180.385 186.434 155.95 183.425 155.95C183.003 155.95 181.085 157.467 179.159 159.321ZM294.468 160.405C289.574 166.495 277.938 188.531 271.812 203.314C263.423 223.558 261.239 230.709 260.699 239.685C259.951 252.14 262.333 258.91 276.943 285.849C285.457 301.547 293.968 320.473 293.968 323.707C293.968 324.747 294.357 325.821 294.833 326.093C295.309 326.364 297.179 321.443 298.988 315.158C304.435 296.239 307.895 287.652 317.796 268.498C327.352 250.007 330.465 242.442 332.568 232.605C333.816 226.772 334.197 215.301 333.176 214.358C332.832 214.04 331.523 214.647 330.268 215.705C329.014 216.765 326.388 218.361 324.433 219.251C321.327 220.666 321.609 220.262 326.676 216.037C333.53 210.324 338.052 202.478 339.695 193.447C341.17 185.346 340.189 183.196 333.398 179.641C326.056 175.796 313.08 167.128 305.49 160.998C302.053 158.222 298.973 155.95 298.645 155.95C298.317 155.95 296.438 157.955 294.468 160.405ZM342.424 185.983C342.855 187.504 343.247 187.659 344.407 186.769C345.577 185.873 345.603 185.511 344.537 184.888C342.43 183.653 341.849 183.954 342.424 185.983ZM137.237 185.729C136.983 186.115 137.414 186.976 138.192 187.641C139.369 188.646 139.609 188.527 139.609 186.937C139.609 185.069 138.155 184.328 137.237 185.729ZM123.103 187.871C113.827 190.008 103.735 197.076 96.8955 206.224C89.992 215.458 78.3085 241.285 76.2104 251.949L75.4985 255.567L81.68 249.465C88.4098 242.82 95.0462 239.444 97.5728 241.381C99.5043 242.862 99.352 246.928 96.9737 257.335C95.8647 262.185 94.9508 268.769 94.9426 271.966L94.9264 277.78L100.676 274.78C108.564 270.666 117.133 263.18 124.939 253.584C132.373 244.447 141.677 228.245 143.709 220.9C144.458 218.192 145.441 215.976 145.894 215.976C147.495 215.976 146.69 210.997 144.58 207.844C143.404 206.087 141.361 201.02 140.04 196.584C138.719 192.147 137.405 188.304 137.122 188.043C136.121 187.118 126.862 187.004 123.103 187.871ZM345.557 188.16C344.672 188.976 343.389 191.876 342.703 194.604C342.019 197.331 340.141 202.155 338.532 205.324C335.224 211.834 334.959 213.892 337.095 216.5C337.915 217.501 338.604 218.953 338.626 219.727C338.693 222.074 348.036 238.434 354.318 247.206C362.46 258.576 373.393 269.033 382.214 273.89C386.196 276.082 389.574 277.876 389.721 277.876C390.378 277.876 388.484 263.624 387.002 257.416C384.98 248.947 384.896 242.826 386.78 241.381C389.322 239.433 395.945 242.822 402.775 249.565L409.057 255.768L408.487 252.519C407.561 247.261 394.697 217.939 390.243 210.937C381.503 197.201 367.563 188.023 354.087 187.132C348.646 186.772 346.82 186.993 345.557 188.16ZM388.036 242.895C386.878 243.964 387.359 248.214 389.926 259.608C391.318 265.787 392.461 272.705 392.465 274.981C392.472 278.631 393.169 279.905 398.369 285.767C401.612 289.423 405.611 294.199 407.255 296.38C408.899 298.561 410.554 300.355 410.933 300.366C412.064 300.399 413.294 290.184 413.245 281.159C413.187 270.612 410.355 262.313 404.159 254.54C398.725 247.723 389.794 241.271 388.036 242.895ZM87.9803 246.896C82.1613 251.144 77.2899 257.26 74.2048 264.189C72.3484 268.357 72.0844 270.823 72.1311 283.504C72.1615 291.799 72.6409 298.79 73.2471 299.783C74.1753 301.303 75.4366 300.108 83.1494 290.404L91.9875 279.283L92.3592 271.78C92.5633 267.653 93.5189 261.112 94.4836 257.243C95.4473 253.374 96.4466 248.626 96.7035 246.692C97.1077 243.648 96.8955 243.174 95.1244 243.174C93.9982 243.174 90.7841 244.849 87.9803 246.896ZM232.27 248.581C231.186 249.476 228.551 254.218 226.415 259.119C224.278 264.019 219.355 274.359 215.475 282.097C199.473 314.009 196.746 321.566 197.808 331.068C198.553 337.727 200.909 340.057 209.49 342.616C213.146 343.708 217.948 345.453 220.161 346.496C225.547 349.034 233.242 355.797 237.163 361.441C238.92 363.969 240.748 366.038 241.224 366.038C241.701 366.038 243.263 364.192 244.695 361.934C247.914 356.861 256.725 349.055 262.053 346.555C264.247 345.525 268.895 343.946 272.383 343.046C283.438 340.192 286.824 334.898 284.858 323.539C283.172 313.787 280.274 306.726 269.999 287.321C264.654 277.226 258.482 264.697 256.284 259.48C254.085 254.262 251.375 249.231 250.261 248.3C248.294 246.656 248.147 246.683 245.259 249.238C243.623 250.686 242.118 252.974 241.916 254.322C241.58 256.553 241.476 256.605 240.755 254.898C237.755 247.804 235.365 246.025 232.27 248.581ZM229.973 257.008C225.353 267.07 216.037 286.456 209.265 300.103C202.965 312.797 200.578 320.661 200.555 328.79C200.535 336.143 202.335 338.459 209.547 340.358C220.877 343.341 229.329 348.522 236.904 357.128L240.206 360.88L239.635 311.172C239.321 283.832 238.847 259.595 238.583 257.311C238.148 253.543 235.862 249.74 234.032 249.74C233.636 249.74 231.809 253.011 229.973 257.008ZM245.542 252.219C243.828 254.634 243.68 258.431 243.421 306.963L243.143 359.112L250.53 352.427C256.781 346.77 259.089 345.349 265.533 343.192C281.943 337.7 283.205 336.422 282.376 326.134C281.64 317.021 277.85 307.202 268.274 289.6C263.783 281.347 257.756 269.133 254.88 262.458C252.004 255.783 249.141 250.165 248.517 249.972C247.894 249.78 246.554 250.791 245.542 252.219ZM67.5074 258.755C49.1174 278.462 46.2395 283.23 34.104 314.118C21.5634 346.035 21.5147 346.18 22.1676 349.893C23.4259 357.057 28.3389 357.446 33.5851 350.797C35.3135 348.605 43.6458 338.258 52.1 327.804C60.5552 317.35 68.2254 307.451 69.1465 305.806C70.6505 303.121 70.6931 301.563 69.5618 290.58C68.2843 278.165 68.9363 270.355 71.7868 263.952C72.583 262.164 74.6729 251.335 74.1621 251.648C74.1327 251.666 71.1379 254.864 67.5074 258.755ZM411.293 257.243C411.506 259.564 412.614 264.408 413.755 268.008C416.082 275.349 416.429 284.737 414.743 294.769C413.83 300.205 413.914 301.726 415.274 304.327C416.164 306.028 423.393 315.488 431.34 325.348C439.286 335.209 447.947 346.076 450.587 349.499C455.644 356.057 457.888 357.041 460.863 354.006C463.539 351.275 462.929 344.794 459.074 334.996C457.166 330.146 453.024 319.425 449.87 311.172C439.492 284.021 436.738 279.798 414.13 256.363L410.908 253.022L411.293 257.243ZM102.012 276.548C94.3435 281.183 91.762 283.574 83.4815 293.717C79.5271 298.561 75.5574 302.701 74.6597 302.917C73.762 303.134 72.4804 304.447 71.8112 305.835C71.142 307.222 64.9189 315.711 57.9819 324.699C44.6441 341.979 38.0574 352.84 38.0574 357.553C38.0574 359.125 37.6005 360.411 37.0419 360.411C35.3927 360.411 35.9198 355.572 38.0635 351.032L40.055 346.812L37.2796 350.094C32.9788 355.179 28.8751 358.535 26.9568 358.535C24.9908 358.535 21.469 355.276 20.3692 352.439C19.4004 349.941 18.7037 351.141 15.1921 361.349C13.684 365.734 10.6974 374.386 8.55465 380.576C5.2532 390.112 4.51289 393.824 3.70149 404.895C2.80276 417.158 2.87791 418.285 4.91402 423.259C7.41422 429.364 13.7125 438.337 15.2083 437.923C16.9784 437.434 16.9459 432.602 15.1555 430.078C12.4969 426.331 10.4791 417.194 11.6713 414.299C12.2196 412.965 12.6695 410.022 12.6695 407.76C12.6695 405.395 13.2311 403.329 13.9897 402.898C14.7158 402.485 16.4005 400.67 17.7329 398.865C19.0663 397.059 21.4131 394.226 22.9496 392.569C26.638 388.59 29.7708 381.979 31.5216 374.479C32.3045 371.126 32.9524 368.067 32.9626 367.68C32.9717 367.292 33.581 366.976 34.3163 366.976C35.7461 366.976 40.0875 360.534 40.0905 358.408C40.0925 356.319 52.949 343.454 65.6033 332.876C83.052 318.292 86.4011 313.804 99.8984 286.932C102.19 282.37 105.01 277.41 106.165 275.912C107.321 274.413 108.111 273.187 107.92 273.187C107.73 273.187 105.071 274.7 102.012 276.548ZM377.24 273.707C377.24 273.957 378.394 275.851 379.804 277.914C381.215 279.977 385.262 287.287 388.797 294.159C392.333 301.031 397.204 309.359 399.622 312.664C402.04 315.97 412.991 326.905 423.959 336.964C443.196 354.608 443.972 355.466 446.003 361.301C447.962 366.928 447.994 367.511 446.471 369.657C444.735 372.105 444.551 375.746 445.026 398.19C445.236 408.098 445.558 410.277 446.882 410.746C449.931 411.826 451.7 408.665 452.326 401.011C453.11 391.436 454.856 388.79 457.224 393.591C458.397 395.968 464.575 400.541 464.575 399.031C464.575 398.535 462.715 396.08 460.443 393.574C453.796 386.241 452.101 382.466 451.661 374.01C451.205 365.266 452.838 366.077 453.666 375.007C454.264 381.469 456.773 386.36 464.974 397.046C473.717 408.442 474.958 418.93 468.944 430.607C466.98 434.418 466.838 438.256 468.66 438.256C470.129 438.256 476.755 428.912 478.786 423.976C480.437 419.962 480.787 416.79 480.78 405.937C480.771 393.513 480.574 392.211 477.305 382.92C475.399 377.504 471.891 367.375 469.51 360.411C466.691 352.163 465.061 348.567 464.836 350.094C464.291 353.787 462.535 356.361 459.768 357.526C456.515 358.894 453.483 357.209 449.699 351.928C448.222 349.867 446.898 348.294 446.757 348.434C446.617 348.573 447.207 351.335 448.068 354.571C449.577 360.239 449.189 363.219 447.309 360.408C446.73 359.543 446.842 358.796 447.618 358.34C448.547 357.795 448.533 357.623 447.565 357.611C446.867 357.604 446.295 356.53 446.295 355.225C446.295 350.553 438.324 337.897 424.464 320.562C419.922 314.881 415.17 308.652 413.904 306.717C412.638 304.783 411.196 303.2 410.698 303.2C410.202 303.2 406.548 299.191 402.578 294.292C398.609 289.394 393.454 283.977 391.124 282.256C385.986 278.462 377.24 273.076 377.24 273.707ZM312.772 282.291C309.26 290.253 303.352 308.136 298.335 325.988C296.318 333.171 297.507 335.761 305.403 341.373C310.656 345.105 314.231 349.23 319.966 358.174C320.723 359.355 320.664 357.5 319.782 352.427C319.066 348.307 317.077 336.917 315.361 327.116C312.13 308.666 311.317 292.56 313.231 284.937C314.232 280.947 313.988 279.535 312.772 282.291ZM170.427 286.318C173.034 295.689 172.258 306.376 166.987 333.681C165.395 341.935 163.821 351.009 163.49 353.846L162.889 359.004L165.131 354.784C166.364 352.462 171.116 347.187 175.688 343.06C180.261 338.933 184.547 334.596 185.212 333.423C186.639 330.907 183.364 318.546 175.743 297.682C171.621 286.396 168.729 280.215 170.427 286.318ZM190.572 343.562C181.952 345.191 174.735 351.183 170.337 360.36C167.515 366.25 163.594 383.021 162.121 395.499C159.394 418.607 168.917 436.06 188.068 443.058C193.048 444.878 195.867 445.21 206.633 445.247C218.541 445.287 219.687 445.127 225.14 442.654C234.262 438.517 240.145 430.775 240.145 422.907C240.145 418.832 241.874 420.12 242.42 424.601C243.092 430.108 247.412 436.733 252.588 440.196C259.165 444.596 266.221 446.068 278.155 445.529C291.584 444.922 298.123 442.628 306.262 435.669C317.084 426.414 320.916 416.197 320.064 398.865C318.835 373.85 312.962 356.695 302.906 348.746C297.302 344.316 293.064 343.25 282.709 343.671C275.685 343.955 272.936 344.552 267.258 347.029C253.773 352.91 243.478 365.684 242.421 377.848C241.884 384.023 240.154 386.262 240.133 380.81C240.117 376.666 237.879 369.233 235.178 364.355C227.122 349.802 207.051 340.445 190.572 343.562ZM187.642 346.948C178.581 349.913 172.435 359.024 168.54 375.268C164.602 391.693 163.517 402.475 164.959 410.868C168.181 429.619 179.143 439.654 200.082 443.022C217.024 445.747 232.481 439.433 236.502 428.147C240.368 417.291 239.3 380.924 234.789 369.782C227.674 352.209 205.051 341.254 187.642 346.948ZM278.227 346.058C269.302 347.976 263.73 350.8 257.369 356.629C246.096 366.958 243.988 373.598 243.81 399.334C243.635 424.731 245.11 431.079 252.541 436.879C262.873 444.945 281.607 445.856 296.864 439.034C312.081 432.231 319.857 415.198 317.325 394.22C314.621 371.828 310.264 359.381 302.697 352.436C295.947 346.239 287.559 344.054 278.227 346.058ZM33.2469 374.916C31.9014 382.725 29.2814 388.149 24.2028 393.641C19.7853 398.416 19.8513 399.639 24.348 396.326C26.3028 394.885 27.9023 393.179 27.9023 392.534C27.9023 391.889 28.3704 391.361 28.9432 391.361C30.6533 391.361 31.9643 395.819 31.9643 401.635C31.9643 405.54 32.4965 407.705 33.8309 409.226C36.9871 412.826 38.0574 410.786 38.0574 401.172C38.0574 396.311 38.5936 389.445 39.2497 385.915C40.71 378.049 38.946 367.914 36.1168 367.914C34.8322 367.914 34.1782 369.509 33.2469 374.916ZM18.8418 403.417C18.2224 404.485 18.1361 405.541 18.6448 405.831C19.1414 406.115 19.8096 405.42 20.1305 404.288C20.9094 401.537 20.2067 401.061 18.8418 403.417ZM464.154 406.424C464.455 409.23 464.891 412.37 465.125 413.402C465.36 414.434 464.34 418.139 462.859 421.637C460.834 426.421 460.457 428.263 461.333 429.072C462.209 429.882 463.065 429.004 464.789 425.527C466.7 421.669 467.042 419.516 466.856 412.51C466.697 406.548 466.194 403.711 465.121 402.718C463.782 401.482 463.672 401.907 464.154 406.424ZM17.4963 409.029C16.4838 412.603 17.5125 422.155 19.1414 424.302C20.0503 425.501 20.7937 427.316 20.7937 428.336C20.7937 429.766 21.0689 429.936 21.9991 429.077C22.9283 428.219 22.6744 426.472 20.8851 421.433C19.1861 416.644 18.7525 413.888 19.2623 411.104C19.9548 407.317 18.4732 405.576 17.4963 409.029ZM13.7775 418.967C13.6729 422.082 17.3795 429.815 18.9779 429.815C19.6157 429.815 19.5436 429.278 18.7941 428.443C18.1157 427.689 16.7306 424.629 15.7161 421.643C14.2547 417.347 13.8506 416.789 13.7775 418.967ZM322.47 425.703C321.124 428.738 318.208 433.965 315.991 437.318C315.329 438.32 314.725 439.228 314.176 440.052C310.575 445.465 309.329 447.338 309.267 449.25C309.234 450.261 309.532 451.283 309.989 452.846C310.12 453.297 310.265 453.793 310.419 454.347C311.328 457.619 313.24 464.047 314.668 468.631C317.625 478.122 319.327 493.324 319.352 510.474C319.375 526.501 321.317 558.357 322.377 560.106C322.795 560.797 322.797 560.779 322.888 559.983C322.938 559.553 323.014 558.896 323.195 558C323.412 556.936 323.543 556.118 323.664 555.367L323.664 555.366C323.757 554.786 323.844 554.247 323.958 553.666C323.958 552.689 323.972 550.444 324.816 547.743C328.837 534.873 333.564 499.288 333.566 481.868C333.567 466.546 329.514 434.816 326.21 424.296L324.92 420.185L322.47 425.703ZM468.754 421.388C468.689 422.169 467.722 424.385 466.604 426.312C465.485 428.238 464.956 429.815 465.429 429.815C466.908 429.815 469.908 423.733 469.378 421.806C469.067 420.678 468.827 420.516 468.754 421.388ZM181.559 451.764C176.484 453.896 171.638 462.032 168.932 472.958C166.436 483.04 165.899 489.153 165.003 517.676C164.008 549.339 162.327 563.103 157.804 576.626C156.656 580.062 155.861 582.979 156.04 583.11C156.869 583.713 174.008 565.534 177.021 560.856C181.422 554.025 187.692 540.473 189.482 533.921C190.866 528.857 190.904 529.099 191.482 547.052C192.079 565.601 193.658 574.734 197.129 579.706C199.113 582.55 200.714 581.365 204.674 574.118C208.183 567.7 211.077 558.013 212.763 547.052C213.437 542.667 215.571 531.694 217.504 522.666C223.702 493.732 225.267 473.718 222.564 457.952L221.357 450.918L218.311 451.387C213.943 452.059 200.207 451.908 191.908 451.096C186.552 450.572 184 450.737 181.559 451.764ZM260.039 452.088C255.774 464.728 257.181 492.88 263.471 520.791C265.156 528.27 267.218 538.627 268.052 543.804C270.9 561.494 275.588 574.754 280.746 579.711C282.985 581.862 283.029 581.865 284.421 580.03C287.974 575.345 291.555 547.468 290.182 535.183C289.873 532.425 290.034 530.17 290.538 530.17C291.042 530.17 292.316 533.019 293.37 536.5C295.764 544.414 303.77 560.185 308.31 565.929C313.124 572.02 325.796 584.251 325.08 582.116C319.631 565.858 317.334 548.004 317.309 521.729C317.288 498.483 315.946 483.599 312.819 471.894C310.089 461.683 306.656 456.02 301.055 452.492C297.771 450.425 296.986 450.323 289.906 451.046C280.335 452.022 266.891 452.076 263.317 451.15C261.189 450.599 260.473 450.804 260.039 452.088ZM175.751 571.3C175.457 571.74 176.359 572.581 177.755 573.169C180.112 574.16 180.217 574.103 179.21 572.368C178.069 570.399 176.648 569.96 175.751 571.3ZM302.769 571.125C301.363 572.423 302.183 573.036 304.724 572.588C306.646 572.248 306.989 571.908 305.993 571.325C304.332 570.353 303.651 570.31 302.769 571.125ZM165.997 579.572C159.443 585.177 153.826 591.947 153.826 594.242C153.826 594.992 154.907 596.26 156.228 597.06C157.549 597.859 160.769 602.339 163.384 607.016C165.999 611.692 168.476 615.518 168.888 615.518C169.3 615.518 170.381 614.358 171.29 612.939C174.562 607.836 177.834 605.827 182.866 605.827H187.551L186.83 597.83C185.966 588.262 184.546 583.568 180.899 578.237C176.947 572.457 174.011 572.721 165.997 579.572ZM301.859 575.892C297.292 580.69 293.968 591.798 293.968 602.263C293.968 606.797 294.107 607.074 295.932 606.172C297.012 605.638 298.894 605.201 300.114 605.201C302.329 605.201 308.366 610.208 311.33 614.506C312.883 616.758 312.94 616.697 318.216 607.211C321.142 601.95 324.423 597.134 325.508 596.509C326.592 595.883 327.48 594.867 327.48 594.251C327.48 592.357 316.532 579.561 312.575 576.83C308.297 573.876 304.126 573.511 301.859 575.892ZM150.054 599.808C145.198 604.697 139.704 617.872 137.034 631.033C134.838 641.855 134.808 661.399 136.973 670.628C138.673 677.875 142.454 685.673 145.737 688.705C150.032 692.673 156.502 690.375 162.831 682.633C165.176 679.765 167.527 677.419 168.056 677.419C168.585 677.419 169.991 679.213 171.182 681.405C176.056 690.387 181.378 692.692 187.053 688.282C195.573 681.662 199.705 665.16 197.524 646.468C195.387 628.152 191.197 616.158 184.781 610.001C181.418 606.772 178.183 607.886 173.542 613.874C171.441 616.583 169.399 619.15 169.005 619.579C168.611 620.007 165.723 615.997 162.587 610.669C154.23 596.466 153.77 596.067 150.054 599.808ZM326.804 598.422C326.153 598.804 323.055 603.537 319.92 608.939C316.784 614.341 313.823 619.127 313.338 619.575C312.839 620.036 310.65 617.932 308.301 614.737C306.015 611.628 303.243 608.821 302.142 608.498C295.094 606.432 287.717 619.675 284.32 640.493C280.723 662.532 283.774 679.114 292.991 687.627C298.513 692.727 303.465 691.384 308.299 683.474C312.203 677.084 313.124 676.559 315.47 679.38C324.39 690.107 327.927 692.292 332.689 690.017C338.894 687.054 344.444 671.735 345.41 654.909C346.506 635.817 339.355 607.999 331.246 599.808C328.969 597.507 328.571 597.384 326.804 598.422ZM163.98 684.687C160.113 689.536 152.608 693.728 149.448 692.801C147.943 692.36 147.649 692.612 148.077 693.973C149.163 697.439 152.747 714.741 154.75 726.189C158.524 747.757 159.283 758.052 157.931 769.354C156.411 782.064 153.469 795.367 151.852 796.834C150.912 797.688 150.768 797.407 151.215 795.593C155.057 780.046 156.544 759.343 154.887 744.496C152.652 724.476 145.982 691.586 143.66 689.142C142.68 688.111 141.127 685.895 140.209 684.218C139.292 682.541 138.298 681.17 138 681.17C137.702 681.17 137.666 681.486 137.922 681.874C138.511 682.767 141.074 699.641 143.679 719.788C146.076 738.321 146.25 751.892 144.179 759.015C143.354 761.852 142.674 765.693 142.668 767.549C142.658 770.49 141.545 772.014 134.012 779.392C128.521 784.771 124.353 788.053 122.587 788.391C118.653 789.141 113.206 794.051 113.206 796.847C113.206 799.423 115.83 800.836 117.806 799.322C118.719 798.622 119.208 798.626 119.466 799.339C119.973 800.743 127.222 803.005 131.371 803.055C133.951 803.086 135.939 804.056 139.317 806.931C146.063 812.674 151.624 814.625 160.005 814.187C172.042 813.559 174.561 809.096 173.506 790.271C173.031 781.798 173.254 777.852 174.455 773.553C176.478 766.3 176.655 763.803 175.745 755.264C175.306 751.129 175.469 744.751 176.143 739.789C177.828 727.384 185.119 700.737 190 689.142C190.665 687.562 190.266 687.673 187.463 689.846C185.633 691.265 183.768 692.425 183.317 692.425C182.866 692.425 182.205 693.375 181.847 694.535C178.874 704.163 177.699 708.851 174.97 721.969C172.245 735.071 171.785 739.628 171.347 757.886C171.072 769.388 170.7 778.663 170.521 778.499C169.138 777.221 168.214 757.483 169.052 747.12C170.432 730.059 174.865 707.183 178.776 696.936C180.084 693.51 180.062 693.457 176.658 691.602C174.555 690.456 172.207 687.884 170.615 684.98C169.182 682.369 167.902 680.232 167.77 680.232C167.639 680.232 165.933 682.238 163.98 684.687ZM309.887 685.328C307.845 688.168 304.856 691.121 303.243 691.891L300.312 693.291L302.196 699.568C310.535 727.34 314.158 759.366 310.727 774.959L309.655 763.892C309.604 748.598 307.84 732.667 304.598 718.217C301.766 705.592 297.714 692.425 296.663 692.425C296.079 692.425 294.282 691.265 292.67 689.846L289.738 687.267L291.337 691.018C295.822 701.536 303.468 729.711 305.207 742.133C305.886 746.979 305.838 751.344 305.055 756.165C304.098 762.057 304.206 764.615 305.738 772.353L307.23 798.422C307.132 809.85 311.566 815.24 321.703 816.017C328.59 816.544 334.002 814.41 341.557 808.189C345.11 805.263 348.109 803.603 350.189 803.409C356.466 802.828 363.188 800.976 363.728 799.679C364.138 798.689 364.616 798.62 365.636 799.402C367.553 800.872 369.116 799.673 369.116 796.734C369.116 793.756 362.8 788.09 359.482 788.09C356.631 788.09 351.886 784.775 347.103 779.443C344.967 777.062 341.963 774.205 340.428 773.093C338.682 771.83 337.635 770.174 337.635 768.677C337.635 767.36 336.882 762.22 335.962 757.256C334.515 749.444 334.448 746.399 335.469 734.63C336.66 720.896 339.888 696.233 341.718 686.875C342.897 680.851 342.367 679.753 340.387 684.117C339.601 685.849 337.8 688.535 336.386 690.083C333.675 693.051 333.318 694.517 327.807 725.251C324.251 745.082 324.073 766.269 327.311 784.231C328.556 791.135 329.342 796.999 329.059 797.261C327.986 798.251 325.917 790.229 323.91 777.304C321.9 764.364 321.905 747.544 323.919 734.161C325.379 724.472 329.959 700.137 331.201 695.473C331.635 693.84 331.323 693.363 329.825 693.363C326.676 693.363 320.098 688.83 316.731 684.341L313.598 680.166L309.887 685.328ZM225.226 151.275C217.239 151.303 200.54 156.028 200.54 158.259C200.54 158.9 202.86 163.968 205.695 169.519C211.583 181.047 215.446 190.111 224.092 212.693C231.226 231.326 235.921 241.06 238.973 243.554C241.124 245.311 241.197 245.311 243.348 243.554C246.441 241.028 251.244 230.972 257.417 214.1C264.301 195.287 271.355 178.827 277.152 168.053C279.698 163.319 281.781 158.887 281.781 158.2C281.781 157.515 280.874 156.506 279.763 155.957C276.745 154.465 262.454 151.292 258.678 151.275H225.226ZM284.985 582.09C288.762 578.934 292.923 561.508 292.977 548.625L293 542.831L295.304 547.99C299.214 556.747 303.468 563.966 306.916 567.696C311.019 572.135 311.12 573.048 307.212 570.38C304.654 568.633 303.964 568.515 302.568 569.585C300.444 571.214 295.521 581.266 293.352 588.404L292.195 594.5C291.873 596.753 291.764 599.214 291.654 601.705C291.421 606.953 291.182 612.337 288.936 616.21L286.889 619.738L287.264 613.62C287.895 603.337 286.301 597.276 280.205 586.781C274.374 576.741 272.771 572.104 277.42 578.726C280.716 583.421 282.464 584.199 284.985 582.09ZM185.833 549.631C182.865 556.499 177.489 565.153 173.413 569.628L170.846 572.444L174.383 570.517C177.419 568.863 178.091 568.78 179.127 569.932C181.869 572.984 188.052 587.578 188.695 591L189.195 594C189.49 596.359 189.485 598.285 189.479 600.31C189.476 601.719 189.472 603.175 189.568 604.856C189.602 605.434 189.637 606.046 189.674 606.703C189.984 612.184 192.376 619.269 193.918 619.269C194.157 619.269 194.09 617.231 193.771 614.739C192.725 606.584 195.127 597.591 201.242 586.776C206.622 577.26 208.129 572.62 203.682 579.266C200.658 583.785 198.508 584.32 195.832 581.221C195.832 581.221 194.385 579.772 193.651 578.694C192.084 576.393 191.195 573 191.195 572C191.195 571 190.424 566.936 190.424 566.936C190.424 566.936 189.313 557.775 189.2 552.639C189.087 547.503 188.899 543.3 188.782 543.3C188.666 543.3 187.338 546.149 185.833 549.631Z" fill="black"/>
<g id="trapezoid">
<mask id="path-2-inside-1_1595_4029" fill="white">
<path d="M227.855 96.5301C227.861 89.4111 228.295 88.3175 233.545 86.643C238.14 85.1774 244.44 85.3151 249.894 87L254.728 88.861V95.6342C254.728 105.104 256.908 110.251 263.036 115.248C266.728 118.258 270.059 119.905 275.601 121.459C288.027 124.943 295.304 127.255 299.782 129.143C304.634 131.188 309.128 135.132 308.195 136.5C307.849 137.008 305.983 139.439 302.954 140.989C299.927 142.538 295.282 145.993 292.633 148.665L286.861 153.5L276.934 151L276.59 150.913C266.546 148.387 265.769 148.191 240.778 148.222C215.638 148.254 214.702 148.323 205.888 150.799C200.906 152.199 196.256 153.344 195.555 153.344C194.853 153.343 192.259 151.216 189.79 148.616C187.321 146.017 182.788 142.603 179.715 141.03C173.768 137.987 172.795 135.987 175.986 133.369C178.921 130.961 192.826 125.091 199.962 123.5C211.553 120.916 216.825 118.502 221.195 114C226.066 108.981 227.848 105.477 227.855 96.5301Z"/>
<path d="M199.962 158.461C199.962 156.233 216.824 151.028 224.951 151H258.99C262.831 151.017 277.502 154.671 280.573 156.162C281.703 156.71 282.627 157.718 282.627 158.403C282.627 159.089 280.507 163.518 277.916 168.247C272.018 179.012 264.841 195.457 257.836 214.254C251.554 231.113 246.668 241.159 243.52 243.684C241.332 245.439 241.257 245.439 239.069 243.684C235.963 241.192 231.186 231.466 223.927 212.849C215.129 190.287 211.198 181.23 205.207 169.712C202.322 164.165 199.962 159.102 199.962 158.461Z"/>
</mask>
<path d="M227.855 96.5301C227.861 89.4111 228.295 88.3175 233.545 86.643C238.14 85.1774 244.44 85.3151 249.894 87L254.728 88.861V95.6342C254.728 105.104 256.908 110.251 263.036 115.248C266.728 118.258 270.059 119.905 275.601 121.459C288.027 124.943 295.304 127.255 299.782 129.143C304.634 131.188 309.128 135.132 308.195 136.5C307.849 137.008 305.983 139.439 302.954 140.989C299.927 142.538 295.282 145.993 292.633 148.665L286.861 153.5L276.934 151L276.59 150.913C266.546 148.387 265.769 148.191 240.778 148.222C215.638 148.254 214.702 148.323 205.888 150.799C200.906 152.199 196.256 153.344 195.555 153.344C194.853 153.343 192.259 151.216 189.79 148.616C187.321 146.017 182.788 142.603 179.715 141.03C173.768 137.987 172.795 135.987 175.986 133.369C178.921 130.961 192.826 125.091 199.962 123.5C211.553 120.916 216.825 118.502 221.195 114C226.066 108.981 227.848 105.477 227.855 96.5301Z" stroke="black" stroke-width="2" mask="url(#path-2-inside-1_1595_4029)"/>
<path d="M199.962 158.461C199.962 156.233 216.824 151.028 224.951 151H258.99C262.831 151.017 277.502 154.671 280.573 156.162C281.703 156.71 282.627 157.718 282.627 158.403C282.627 159.089 280.507 163.518 277.916 168.247C272.018 179.012 264.841 195.457 257.836 214.254C251.554 231.113 246.668 241.159 243.52 243.684C241.332 245.439 241.257 245.439 239.069 243.684C235.963 241.192 231.186 231.466 223.927 212.849C215.129 190.287 211.198 181.23 205.207 169.712C202.322 164.165 199.962 159.102 199.962 158.461Z" stroke="black" stroke-width="2" mask="url(#path-2-inside-1_1595_4029)"/>
</g>
<g id="thewidest">
<mask id="path-3-inside-2_1595_4029" fill="white">
<path d="M149.998 178.916C159.454 173.418 175.514 162.25 179.541 158.371C181.467 156.517 183.385 155 183.806 155C186.815 155 201.273 179.435 209.055 197.674C218.471 219.741 221.458 229.285 221.985 238.992C222.471 247.966 222.321 248.896 218.87 258.223C216.876 263.613 211.997 274.323 208.027 282.024C199.26 299.033 192.602 313.23 190.293 319.835C189.347 322.542 187.884 326 187.69 326C187.495 326 186.586 322.801 185.69 319.835C178.951 297.502 172.417 282.441 162.69 265C156.768 254.38 151.547 239.872 149.647 230C148.542 224.254 148.277 213.5 149.19 213.5C149.474 213.5 152.056 214.415 154.37 215.963C161.042 220.428 159.654 219.845 152.669 213.5C144.764 206.319 142.193 198.754 142.693 189L143.195 183L149.998 178.916Z"/>
<path d="M272.194 202.364C278.319 187.581 289.955 165.545 294.85 159.455C296.82 157.004 298.699 155 299.027 155C299.355 155 302.435 157.272 305.871 160.048C313.461 166.178 326.438 174.846 333.78 178.69C340.571 182.246 341.552 184.395 340.077 192.497C338.434 201.528 334.544 209.786 327.69 215.5C322.623 219.724 321.708 219.716 324.815 218.3C326.77 217.41 329.396 215.815 330.65 214.755C331.904 213.696 333.213 213.089 333.557 213.407C334.579 214.351 334.197 225.821 332.95 231.655C330.847 241.492 327.746 249.509 318.19 268C308.29 287.155 304.816 295.288 299.37 314.207C297.56 320.493 295.167 326.771 294.69 326.5C294.214 326.228 293.69 323.54 293.69 322.5C293.69 319.266 284.704 300.698 276.19 285C261.581 258.062 259.942 251.447 260.69 238.992C261.23 230.016 263.805 222.608 272.194 202.364Z"/>
</mask>
<path d="M149.998 178.916C159.454 173.418 175.514 162.25 179.541 158.371C181.467 156.517 183.385 155 183.806 155C186.815 155 201.273 179.435 209.055 197.674C218.471 219.741 221.458 229.285 221.985 238.992C222.471 247.966 222.321 248.896 218.87 258.223C216.876 263.613 211.997 274.323 208.027 282.024C199.26 299.033 192.602 313.23 190.293 319.835C189.347 322.542 187.884 326 187.69 326C187.495 326 186.586 322.801 185.69 319.835C178.951 297.502 172.417 282.441 162.69 265C156.768 254.38 151.547 239.872 149.647 230C148.542 224.254 148.277 213.5 149.19 213.5C149.474 213.5 152.056 214.415 154.37 215.963C161.042 220.428 159.654 219.845 152.669 213.5C144.764 206.319 142.193 198.754 142.693 189L143.195 183L149.998 178.916Z" stroke="black" stroke-width="2" mask="url(#path-3-inside-2_1595_4029)"/>
<path d="M272.194 202.364C278.319 187.581 289.955 165.545 294.85 159.455C296.82 157.004 298.699 155 299.027 155C299.355 155 302.435 157.272 305.871 160.048C313.461 166.178 326.438 174.846 333.78 178.69C340.571 182.246 341.552 184.395 340.077 192.497C338.434 201.528 334.544 209.786 327.69 215.5C322.623 219.724 321.708 219.716 324.815 218.3C326.77 217.41 329.396 215.815 330.65 214.755C331.904 213.696 333.213 213.089 333.557 213.407C334.579 214.351 334.197 225.821 332.95 231.655C330.847 241.492 327.746 249.509 318.19 268C308.29 287.155 304.816 295.288 299.37 314.207C297.56 320.493 295.167 326.771 294.69 326.5C294.214 326.228 293.69 323.54 293.69 322.5C293.69 319.266 284.704 300.698 276.19 285C261.581 258.062 259.942 251.447 260.69 238.992C261.23 230.016 263.805 222.608 272.194 202.364Z" stroke="black" stroke-width="2" mask="url(#path-3-inside-2_1595_4029)"/>
</g>
<g id="buttocks">
<mask id="path-4-inside-3_1595_4029" fill="white">
<path d="M170.87 360.398C175.268 351.22 182.485 345.228 191.105 343.599C207.584 340.482 227.655 349.839 235.712 364.392C238.412 369.27 240.65 376.703 240.666 380.847C240.688 386.299 242.417 384.061 242.954 377.886C244.011 365.721 254.306 352.947 267.791 347.066C273.469 344.589 276.218 343.992 283.242 343.708C293.597 343.288 297.835 344.353 303.439 348.784C313.495 356.732 319.368 373.887 320.598 398.902C321.45 416.234 317.617 426.452 306.795 435.707C298.656 442.665 292.117 444.959 278.688 445.566C266.754 446.105 259.698 444.634 253.122 440.233C247.945 436.77 243.625 430.145 242.953 424.639C242.407 420.157 240.678 418.87 240.678 422.944C240.678 430.812 234.796 438.554 225.673 442.691C220.22 445.164 219.074 445.325 207.166 445.284C196.4 445.247 193.581 444.915 188.601 443.095C169.45 436.098 159.928 418.645 162.654 395.537C164.127 383.058 168.048 366.288 170.87 360.398Z"/>
</mask>
<path d="M170.87 360.398C175.268 351.22 182.485 345.228 191.105 343.599C207.584 340.482 227.655 349.839 235.712 364.392C238.412 369.27 240.65 376.703 240.666 380.847C240.688 386.299 242.417 384.061 242.954 377.886C244.011 365.721 254.306 352.947 267.791 347.066C273.469 344.589 276.218 343.992 283.242 343.708C293.597 343.288 297.835 344.353 303.439 348.784C313.495 356.732 319.368 373.887 320.598 398.902C321.45 416.234 317.617 426.452 306.795 435.707C298.656 442.665 292.117 444.959 278.688 445.566C266.754 446.105 259.698 444.634 253.122 440.233C247.945 436.77 243.625 430.145 242.953 424.639C242.407 420.157 240.678 418.87 240.678 422.944C240.678 430.812 234.796 438.554 225.673 442.691C220.22 445.164 219.074 445.325 207.166 445.284C196.4 445.247 193.581 444.915 188.601 443.095C169.45 436.098 159.928 418.645 162.654 395.537C164.127 383.058 168.048 366.288 170.87 360.398Z" stroke="black" stroke-width="2" mask="url(#path-4-inside-3_1595_4029)"/>
</g>
</g>
</svg>
